<svg width="345" height="144" viewBox="0 0 345 144" fill="none" xmlns="http://www.w3.org/2000/svg">
  <path
    d="M3.71738 138.192H9.87738V88.384H3.71738V82.576H32.4054C36.6294 82.576 40.5307 83.28 44.1094 84.688C47.7467 86.0373 50.8854 88.032 53.5254 90.672C56.1654 93.2533 58.2187 96.4507 59.6854 100.264C61.2107 104.077 61.9734 108.419 61.9734 113.288C61.9734 118.157 61.2107 122.499 59.6854 126.312C58.2187 130.125 56.1654 133.352 53.5254 135.992C50.8854 138.573 47.7467 140.568 44.1094 141.976C40.5307 143.325 36.6294 144 32.4054 144H3.71738V138.192ZM24.1334 137.664H29.8534C32.7867 137.664 35.28 137.371 37.3334 136.784C39.4454 136.197 41.1467 135.288 42.4374 134.056C43.7867 132.765 44.7547 131.093 45.3414 129.04C45.9867 126.928 46.3094 124.376 46.3094 121.384V105.192C46.3094 102.2 45.9867 99.6773 45.3414 97.624C44.7547 95.512 43.7867 93.84 42.4374 92.608C41.1467 91.3173 39.4454 90.3787 37.3334 89.792C35.28 89.2053 32.7867 88.912 29.8534 88.912H24.1334V137.664ZM65.107 138.192H69.507L88.603 82.576H100.747L119.843 138.192H124.243V144H98.459V138.192H105.499L101.275 125.256H81.211L76.987 138.192H84.027V144H65.107V138.192ZM82.971 119.184H99.691L91.419 93.312H91.067L82.971 119.184ZM129.014 138.192H135.174V88.384H129.014V82.576H152.774L177.942 126.312H178.47V88.384H172.31V82.576H191.406V88.384H185.334V144H172.486L142.566 92.872H142.038V138.192H148.198V144H129.014V138.192ZM198.624 138.192H204.784V88.384H198.624V82.576H225.2V88.384H219.04V138.192H225.2V144H198.624V138.192ZM230.021 138.192H234.421L253.517 82.576H265.661L284.757 138.192H289.157V144H263.373V138.192H270.413L266.189 125.256H246.125L241.901 138.192H248.941V144H230.021V138.192ZM247.885 119.184H264.605L256.333 93.312H255.981L247.885 119.184ZM293.928 138.192H300.088V88.384H293.928V82.576H320.944V88.384H314.344V137.664H331.064V125.872H341.272V144H293.928V138.192Z"
    fill="#393939" />
  <path fill-rule="evenodd" clip-rule="evenodd"
    d="M127.296 33.2867H134.823C135.202 33.2867 135.512 32.9789 135.548 32.6051C135.984 28.2187 139.524 24.7477 143.94 24.4195C144.316 24.3921 144.929 24.3944 145.308 24.3944H164.915C165.294 24.3944 165.907 24.3921 166.284 24.4195C170.7 24.7477 174.241 28.2187 174.677 32.6051C174.714 32.9789 175.024 33.2867 175.401 33.2867H178.598C178.976 33.2867 179.286 32.9789 179.324 32.6051C179.759 28.2187 183.298 24.7477 187.716 24.4195C188.091 24.3921 188.705 24.3944 189.083 24.3944H208.69C209.068 24.3944 209.681 24.3921 210.058 24.4195C214.475 24.7477 218.013 28.2187 218.451 32.6051C218.487 32.9789 218.797 33.2867 219.176 33.2867H226.701C227.08 33.2867 227.386 32.9812 227.386 32.6028V12.4483C227.386 12.0687 227.114 11.6275 226.774 11.4634C211.936 4.21249 195.286 0.104301 177.684 0.00170985C177.306 -0.000569949 176.695 -0.000569949 176.317 0.00170985C158.715 0.104301 142.065 4.21477 127.228 11.4634C126.888 11.6275 126.615 12.0687 126.615 12.4483V32.6028C126.612 32.9812 126.917 33.2867 127.296 33.2867Z"
    fill="#FD5732" />
  <path fill-rule="evenodd" clip-rule="evenodd"
    d="M233.948 41.4974C233.65 39.5254 232.092 37.966 230.12 37.6696C229.746 37.6149 229.133 37.6195 228.753 37.6195H125.244C124.865 37.6195 124.252 37.6149 123.878 37.6696C121.906 37.966 120.347 39.5242 120.05 41.4974C119.996 41.8713 120 42.4846 120 42.8641V58.8227C120 59.2012 120.306 59.5089 120.684 59.5089H233.313C233.692 59.5089 233.997 59.2012 233.997 58.8227V42.8641C233.997 42.4846 234.002 41.8713 233.948 41.4974Z"
    fill="#FD5732" />
  <path fill-rule="evenodd" clip-rule="evenodd"
    d="M233.314 63.8384H120.684C120.305 63.8384 120 64.1439 120 64.5223V67.7152C120 68.0936 120.305 68.3991 120.684 68.3991H128.208C128.587 68.3991 128.892 68.7046 128.892 69.0831V76.3784C128.892 76.7568 129.198 77.0646 129.576 77.0646H136.873C137.251 77.0646 137.557 76.7568 137.557 76.3784V69.0831C137.557 68.7046 137.862 68.3991 138.241 68.3991H215.759C216.138 68.3991 216.443 68.7046 216.443 69.0831V76.3784C216.443 76.7568 216.75 77.0646 217.127 77.0646H224.423C224.802 77.0646 225.108 76.7568 225.108 76.3784V69.0831C225.108 68.7046 225.414 68.3991 225.792 68.3991H233.316C233.696 68.3991 234 68.0936 234 67.7152V64.5223C233.997 64.1439 233.693 63.8384 233.314 63.8384Z"
    fill="#FD5732" />
</svg>