<svg width="144" height="144" viewBox="0 0 144 144" fill="none" xmlns="http://www.w3.org/2000/svg">
  <path fill-rule="evenodd" clip-rule="evenodd"
    d="M8.54219 33.2867H17.354C17.797 33.2867 18.16 32.9789 18.2027 32.6051C18.7125 28.2187 22.8575 24.7477 28.0274 24.4195C28.4678 24.3921 29.1858 24.3944 29.6289 24.3944H52.5838C53.0269 24.3944 53.7449 24.3921 54.1866 24.4195C59.3565 24.7477 63.5015 28.2187 64.0126 32.6051C64.0553 32.9789 64.4183 33.2867 64.86 33.2867H68.602C69.0451 33.2867 69.408 32.9789 69.4521 32.6051C69.9619 28.2187 74.1055 24.7477 79.2768 24.4195C79.7158 24.3921 80.4351 24.3944 80.8782 24.3944H103.832C104.275 24.3944 104.993 24.3921 105.433 24.4195C110.604 24.7477 114.747 28.2187 115.259 32.6051C115.302 32.9789 115.665 33.2867 116.108 33.2867H124.918C125.362 33.2867 125.721 32.9812 125.721 32.6028V12.4483C125.721 12.0687 125.402 11.6275 125.004 11.4634C107.633 4.21249 88.1393 0.104301 67.5331 0.00170985C67.09 -0.000569949 66.3747 -0.000569949 65.9316 0.00170985C45.3254 0.104301 25.8322 4.21477 8.46212 11.4634C8.06444 11.6275 7.74416 12.0687 7.74416 12.4483V32.6028C7.74149 32.9812 8.0978 33.2867 8.54219 33.2867Z"
    fill="#FD5732" />
  <path fill-rule="evenodd" clip-rule="evenodd"
    d="M133.402 41.4974C133.054 39.5254 131.23 37.966 128.921 37.6696C128.483 37.6149 127.765 37.6195 127.321 37.6195H6.13887C5.69582 37.6195 4.97785 37.6149 4.54013 37.6696C2.23142 37.966 0.405801 39.5242 0.0588276 41.4974C-0.00522912 41.8713 0.00010894 42.4846 0.00010894 42.8641V58.8227C0.00010894 59.2012 0.357759 59.5089 0.800817 59.5089H132.659C133.103 59.5089 133.46 59.2012 133.46 58.8227V42.8641C133.46 42.4846 133.466 41.8713 133.402 41.4974Z"
    fill="#FD5732" />
  <path fill-rule="evenodd" clip-rule="evenodd"
    d="M132.66 63.8384H0.800708C0.35765 63.8384 0 64.1439 0 64.5223V67.7152C0 68.0936 0.35765 68.3991 0.800708 68.3991H9.60983C10.0529 68.3991 10.4105 68.7046 10.4105 69.0831V76.3784C10.4105 76.7568 10.7682 77.0646 11.2113 77.0646H19.7535C20.1965 77.0646 20.5542 76.7568 20.5542 76.3784V69.0831C20.5542 68.7046 20.9118 68.3991 21.3549 68.3991H112.109C112.552 68.3991 112.909 68.7046 112.909 69.0831V76.3784C112.909 76.7568 113.268 77.0646 113.71 77.0646H122.251C122.695 77.0646 123.053 76.7568 123.053 76.3784V69.0831C123.053 68.7046 123.412 68.3991 123.854 68.3991H132.663C133.107 68.3991 133.463 68.0936 133.463 67.7152V64.5223C133.459 64.1439 133.104 63.8384 132.66 63.8384Z"
    fill="#FD5732" />
  <path
    d="M16.2788 138.192H22.4388V88.384H16.2788V82.576H44.9668C49.1908 82.576 53.0922 83.28 56.6708 84.688C60.3082 86.0373 63.4468 88.032 66.0868 90.672C68.7268 93.2533 70.7802 96.4507 72.2468 100.264C73.7722 104.077 74.5348 108.419 74.5348 113.288C74.5348 118.157 73.7722 122.499 72.2468 126.312C70.7802 130.125 68.7268 133.352 66.0868 135.992C63.4468 138.573 60.3082 140.568 56.6708 141.976C53.0922 143.325 49.1908 144 44.9668 144H16.2788V138.192ZM36.6948 137.664H42.4148C45.3482 137.664 47.8415 137.371 49.8948 136.784C52.0068 136.197 53.7082 135.288 54.9988 134.056C56.3482 132.765 57.3162 131.093 57.9028 129.04C58.5482 126.928 58.8708 124.376 58.8708 121.384V105.192C58.8708 102.2 58.5482 99.6773 57.9028 97.624C57.3162 95.512 56.3482 93.84 54.9988 92.608C53.7082 91.3173 52.0068 90.3787 49.8948 89.792C47.8415 89.2053 45.3482 88.912 42.4148 88.912H36.6948V137.664ZM82.7085 138.192H88.8685V88.384H82.7085V82.576H109.725V88.384H103.125V137.664H119.845V125.872H130.053V144H82.7085V138.192Z"
    fill="#393939" />
</svg>